<!DOCTYPE svg PUBLIC "-//W3C//DTD SVG 20010904//EN" "http://www.w3.org/TR/2001/REC-SVG-20010904/DTD/svg10.dtd">
<svg version="1.0" xmlns="http://www.w3.org/2000/svg" width="1600px" height="1600px" viewBox="0 0 16000 16000" preserveAspectRatio="xMidYMid meet">
<g id="layer101" fill="#090905" stroke="none">
 <path d="M480 11480 l0 -1210 235 0 235 0 0 975 0 975 7050 0 7050 0 0 -975 0 -975 235 0 235 0 0 1210 0 1210 -7520 0 -7520 0 0 -1210z m14570 1095 l0 -25 -465 0 -465 0 0 25 0 25 465 0 465 0 0 -25z m0 -90 l0 -25 -470 0 -470 0 0 25 0 25 470 0 470 0 0 -25z m-518 -78 c32 -40 22 -89 -23 -112 -75 -39 -135 60 -73 121 29 30 68 27 96 -9z m207 -3 c12 -15 21 -38 21 -51 0 -29 -42 -73 -70 -73 -30 0 -70 44 -70 76 0 66 80 98 119 48z"/>
 <path d="M10136 10169 l-26 -20 0 -1578 0 -1578 20 -18 c29 -26 85 -25 113 3 21 22 22 30 27 284 l5 262 45 -70 c54 -84 213 -246 295 -301 230 -154 482 -220 739 -194 141 14 241 43 371 106 411 199 665 617 665 1095 0 377 -163 730 -440 953 -183 148 -368 224 -596 248 -397 42 -806 -154 -1033 -495 l-46 -69 -5 672 -5 673 -28 24 c-34 29 -66 31 -101 3z m1354 -1004 c366 -99 645 -407 721 -798 67 -342 -34 -693 -270 -940 -131 -137 -278 -225 -456 -273 -136 -37 -324 -39 -460 -5 -228 58 -440 207 -570 401 -131 196 -185 374 -185 610 0 128 11 213 41 310 118 389 437 666 834 724 74 11 252 -4 345 -29z"/>
 <path d="M7546 9360 c-114 -14 -225 -49 -341 -106 -241 -118 -411 -290 -535 -539 -101 -205 -137 -379 -127 -615 4 -74 13 -164 21 -200 111 -512 516 -890 1008 -941 392 -40 776 135 1018 466 61 83 145 252 176 353 51 168 54 209 54 885 0 619 0 627 -21 648 -15 15 -30 19 -62 17 -37 -3 -44 -7 -59 -38 -16 -30 -18 -67 -18 -275 l0 -240 -52 80 c-66 100 -220 256 -315 318 -104 69 -249 135 -357 162 -108 27 -282 39 -390 25z m366 -190 c164 -42 365 -161 469 -278 188 -213 279 -454 279 -741 0 -268 -95 -515 -279 -723 -106 -119 -309 -238 -479 -280 -117 -29 -313 -31 -422 -4 -445 110 -751 487 -777 956 -16 310 89 591 302 806 154 155 335 249 550 285 80 13 264 2 357 -21z"/>
 <path d="M4580 9354 c-191 -36 -356 -106 -494 -212 -98 -75 -138 -115 -210 -207 -221 -284 -303 -630 -241 -1010 39 -237 147 -453 314 -628 174 -182 390 -299 621 -336 83 -14 256 -14 340 -1 208 33 411 130 552 262 79 74 89 134 27 180 -36 27 -66 17 -141 -49 -120 -104 -231 -165 -379 -204 -123 -34 -349 -34 -466 0 -261 73 -481 259 -613 517 -37 73 -80 196 -95 269 -28 145 -21 358 15 502 113 441 496 753 926 753 245 0 418 -69 647 -260 56 -46 84 -50 121 -15 28 26 34 70 15 108 -27 51 -157 156 -262 211 -168 88 -284 117 -492 121 -88 2 -171 1 -185 -1z"/>
 <path d="M480 4570 l0 -1210 7520 0 7520 0 0 1210 0 1210 -235 0 -235 0 0 -975 0 -975 -7050 0 -7050 0 0 975 0 975 -235 0 -235 0 0 -1210z"/>
 </g>

</svg>