<!DOCTYPE svg PUBLIC "-//W3C//DTD SVG 20010904//EN" "http://www.w3.org/TR/2001/REC-SVG-20010904/DTD/svg10.dtd">
<svg version="1.0" xmlns="http://www.w3.org/2000/svg" width="1600px" height="942px" viewBox="0 0 16000 9420" preserveAspectRatio="xMidYMid meet">
<g id="layer101" fill="#ffffff" stroke="none">
 <path d="M0 8180 l0 -1220 255 0 255 0 0 980 0 980 7480 0 7480 0 0 -980 0 -980 255 0 255 0 0 1220 0 1220 -7990 0 -7990 0 0 -1220z m15480 1105 l0 -25 -500 0 -500 0 0 25 0 25 500 0 500 0 0 -25z m-2 -99 c3 -23 0 -28 -13 -22 -9 3 -235 6 -501 6 l-484 0 0 25 0 25 498 -2 497 -3 3 -29z m-551 -74 c27 -32 28 -43 8 -82 -19 -38 -57 -48 -100 -27 -56 27 -60 103 -7 132 35 19 71 11 99 -23z m217 7 c56 -44 18 -129 -60 -129 -26 0 -36 6 -54 35 -19 31 -21 39 -10 66 22 52 77 65 124 28z"/>
 <path d="M10254 6865 c-12 -8 -26 -27 -33 -42 -8 -21 -11 -430 -9 -1590 l3 -1563 27 -26 c33 -33 77 -36 116 -7 l27 20 3 273 2 273 43 -64 c75 -113 252 -280 369 -348 61 -36 179 -90 221 -103 23 -6 47 -15 52 -19 16 -11 105 -27 234 -43 103 -13 136 -13 243 -1 194 21 244 35 408 113 182 86 335 212 458 377 53 70 152 257 152 286 0 8 4 19 9 25 4 5 16 41 25 79 10 39 23 90 29 115 19 73 15 370 -6 460 -64 267 -163 447 -341 626 -139 139 -299 236 -484 293 -130 41 -202 51 -362 51 -166 0 -247 -11 -372 -50 -260 -82 -487 -251 -642 -479 l-36 -53 0 685 0 686 -26 20 c-31 24 -81 27 -110 6z m1331 -995 c143 -21 285 -77 425 -168 99 -65 234 -196 269 -260 6 -11 17 -27 25 -35 21 -21 91 -163 115 -236 12 -35 31 -120 43 -190 19 -114 20 -136 9 -226 -22 -177 -56 -291 -124 -415 -47 -86 -57 -100 -124 -180 -56 -67 -86 -95 -191 -176 -57 -45 -197 -114 -288 -143 -181 -58 -417 -62 -589 -10 -110 33 -281 114 -315 149 -3 3 -30 24 -60 48 -183 141 -326 381 -370 622 -16 84 -16 287 -1 370 38 200 146 406 289 549 115 115 286 222 409 256 32 9 69 21 83 26 70 26 274 36 395 19z"/>
 <path d="M4327 6035 c-86 -14 -229 -55 -264 -75 -10 -5 -38 -19 -63 -29 -42 -19 -112 -56 -135 -73 -5 -5 -35 -26 -65 -48 -230 -168 -421 -482 -459 -754 -15 -108 -14 -354 3 -456 26 -164 116 -368 223 -508 69 -90 181 -204 236 -240 23 -15 47 -30 52 -35 156 -119 441 -207 670 -207 115 0 284 29 395 67 85 29 203 83 208 95 2 4 8 8 14 8 17 0 143 97 182 140 19 22 38 50 42 64 8 32 -21 84 -53 97 -39 14 -73 3 -129 -42 -73 -60 -76 -62 -120 -90 -94 -62 -224 -115 -339 -140 -118 -26 -445 -12 -490 21 -5 4 -23 10 -40 14 -140 34 -386 218 -497 371 -216 299 -258 708 -107 1045 16 36 34 72 39 80 5 8 17 29 26 45 9 17 39 59 67 95 135 174 312 293 531 358 83 24 107 26 261 27 147 0 182 -3 260 -23 125 -33 271 -108 383 -198 109 -86 136 -93 183 -43 16 17 29 41 29 53 0 36 -47 98 -111 146 -32 25 -66 51 -74 58 -7 7 -60 35 -115 63 -172 86 -298 117 -510 124 -100 3 -172 0 -233 -10z"/>
 <path d="M7420 6035 c-143 -24 -308 -91 -445 -181 -133 -87 -247 -203 -362 -370 -70 -102 -150 -314 -172 -461 -15 -96 -13 -289 3 -388 73 -439 388 -811 810 -954 253 -86 551 -84 801 5 420 150 722 514 792 955 16 101 18 184 18 716 0 595 0 602 -21 630 -17 22 -30 29 -65 31 -37 2 -49 -1 -69 -23 -23 -25 -24 -28 -28 -270 l-5 -244 -28 36 c-16 20 -29 40 -29 44 0 21 -231 239 -300 284 -147 95 -314 165 -460 191 -94 17 -340 16 -440 -1z m377 -166 c90 -12 181 -39 271 -80 35 -16 66 -29 68 -29 3 0 10 -5 17 -10 7 -6 41 -29 77 -52 104 -68 238 -208 307 -323 60 -100 115 -249 133 -362 15 -90 15 -281 0 -363 -32 -180 -127 -372 -251 -514 -40 -45 -166 -151 -224 -187 -243 -153 -571 -197 -850 -112 -50 15 -201 81 -220 96 -5 4 -37 25 -70 47 -180 120 -349 355 -409 570 -9 30 -23 106 -31 169 -13 94 -14 130 -5 205 14 112 37 220 57 266 100 234 226 393 406 513 76 50 230 127 255 127 6 0 32 7 56 15 97 33 273 43 413 24z"/>
 <path d="M0 1220 l0 -1220 7990 0 7990 0 0 1220 0 1220 -255 0 -255 0 0 -985 0 -985 -7480 0 -7480 0 0 985 0 985 -255 0 -255 0 0 -1220z"/>
 </g>

</svg>